<?xml version="1.0" encoding="UTF-8" standalone="no"?>
<svg
   xmlns:dc="http://purl.org/dc/elements/1.1/"
   xmlns:cc="http://creativecommons.org/ns#"
   xmlns:rdf="http://www.w3.org/1999/02/22-rdf-syntax-ns#"
   xmlns:svg="http://www.w3.org/2000/svg"
   xmlns="http://www.w3.org/2000/svg"
   xmlns:sodipodi="http://sodipodi.sourceforge.net/DTD/sodipodi-0.dtd"
   xmlns:inkscape="http://www.inkscape.org/namespaces/inkscape"
   viewBox="0 0 56.939682 42.542511"
   version="1.1"
   id="svg847"
   sodipodi:docname="vw-offline-manual-creator.svg"
   inkscape:version="0.92.4 (5da689c313, 2019-01-14)"
   width="56.939682"
   height="42.542511"
   inkscape:export-filename="C:\Users\gromk\Desktop\vw-offline-manual-creator.png"
   inkscape:export-xdpi="1444.8975"
   inkscape:export-ydpi="1444.8975">
  <metadata
     id="metadata853">
    <rdf:RDF>
      <cc:Work
         rdf:about="">
        <dc:format>image/svg+xml</dc:format>
        <dc:type
           rdf:resource="http://purl.org/dc/dcmitype/StillImage" />
        <dc:title />
      </cc:Work>
    </rdf:RDF>
  </metadata>
  <defs
     id="defs851" />
  <sodipodi:namedview
     pagecolor="#ffffff"
     bordercolor="#666666"
     borderopacity="1"
     objecttolerance="10"
     gridtolerance="10"
     guidetolerance="10"
     inkscape:pageopacity="0"
     inkscape:pageshadow="2"
     inkscape:window-width="1920"
     inkscape:window-height="1017"
     id="namedview849"
     showgrid="false"
     inkscape:zoom="11.313708"
     inkscape:cx="6.8476672"
     inkscape:cy="12.83011"
     inkscape:window-x="-8"
     inkscape:window-y="-8"
     inkscape:window-maximized="1"
     inkscape:current-layer="svg847"
     fit-margin-top="0"
     fit-margin-left="0"
     fit-margin-right="0"
     fit-margin-bottom="0" />
  <path
     style="line-height:normal;font-family:Sans;-inkscape-font-specification:Sans;text-indent:0;text-align:start;text-transform:none;overflow:visible;stroke-width:0.90595287"
     d="M 11.021484 6.9707031 C 6.8321615 7.3947564 4.0898438 8.7539063 4.0898438 8.7539062 C 3.7793197 8.9082135 3.5835352 9.2313164 3.5859375 9.5839844 L 3.5859375 12.330078 L 2.6894531 12.330078 C 1.214786 12.330078 -2.9605947e-16 13.570143 0 15.076172 L 0 38.880859 C 0 40.386888 1.214786 41.626953 2.6894531 41.626953 L 20.421875 41.626953 C 20.914084 42.184412 21.61914 42.542969 22.412109 42.542969 C 23.205078 42.542969 23.908182 42.184412 24.400391 41.626953 L 42.134766 41.626953 C 43.609433 41.626953 44.824219 40.386888 44.824219 38.880859 L 44.824219 15.076172 C 44.824219 13.570143 43.609433 12.330078 42.134766 12.330078 L 41.238281 12.330078 L 41.238281 9.5839844 C 41.240681 9.2313164 41.042946 8.9082135 40.732422 8.7539062 C 40.732422 8.7539062 37.991632 7.397199 33.804688 6.9726562 A 13.647058 13.647058 0 0 1 34.863281 8.9296875 C 37.393257 9.3109921 38.98778 10.000346 39.445312 10.212891 L 39.445312 13.074219 C 39.420403 13.196893 39.420403 13.32264 39.445312 13.445312 L 39.445312 36.648438 C 38.115499 36.105666 35.554371 35.21875 31.376953 35.21875 C 27.199534 35.21875 24.638406 36.105666 23.308594 36.648438 L 23.308594 28.085938 A 13.647058 13.647058 0 0 1 22.412109 28.117188 A 13.647058 13.647058 0 0 1 21.515625 28.072266 L 21.515625 36.648438 C 20.185813 36.105666 17.624685 35.21875 13.447266 35.21875 C 9.2698473 35.21875 6.7087195 36.105666 5.3789062 36.648438 L 5.3789062 13.417969 C 5.4038223 13.295295 5.4038222 13.167595 5.3789062 13.044922 L 5.3789062 10.212891 C 5.8358297 10.000629 7.4271026 9.3132709 9.9511719 8.9316406 A 13.647058 13.647058 0 0 1 11.021484 6.9707031 z M 2.6894531 14.160156 L 3.5859375 14.160156 L 3.5859375 37.964844 C 3.5813675 38.643856 4.2770811 39.091915 4.875 38.794922 C 4.875 38.794922 8.2695173 37.048828 13.447266 37.048828 C 18.505324 37.048828 21.810411 38.688625 21.962891 38.765625 C 21.971991 38.775425 21.982647 38.785602 21.992188 38.794922 C 21.992788 38.795229 22.019531 38.794922 22.019531 38.794922 C 22.047071 38.805872 22.075056 38.814146 22.103516 38.822266 C 22.121856 38.832466 22.141156 38.842702 22.160156 38.851562 C 22.169456 38.851712 22.17816 38.851711 22.1875 38.851562 C 22.20584 38.861762 22.225141 38.871999 22.244141 38.880859 C 22.253441 38.881009 22.262144 38.881009 22.271484 38.880859 C 22.327384 38.886259 22.383547 38.886259 22.439453 38.880859 C 22.448753 38.881009 22.457457 38.881009 22.466797 38.880859 C 22.523587 38.876859 22.581706 38.866532 22.636719 38.851562 C 22.665179 38.843463 22.693163 38.833216 22.720703 38.822266 C 22.749163 38.814166 22.777148 38.805872 22.804688 38.794922 C 22.804688 38.794922 22.881552 38.769195 22.888672 38.765625 C 22.908162 38.747405 22.925519 38.728884 22.943359 38.708984 C 23.320436 38.524117 26.509515 37.048828 31.376953 37.048828 C 36.554702 37.048828 39.949219 38.794922 39.949219 38.794922 C 40.547138 39.091915 41.242858 38.643856 41.238281 37.964844 L 41.238281 14.160156 L 42.134766 14.160156 C 42.641299 14.160156 43.03125 14.558867 43.03125 15.076172 L 43.03125 38.880859 C 43.03125 39.398164 42.641299 39.796875 42.134766 39.796875 L 2.6894531 39.796875 C 2.1829201 39.796875 1.7929688 39.398164 1.7929688 38.880859 L 1.7929688 15.076172 C 1.7929688 14.558867 2.1829201 14.160156 2.6894531 14.160156 z "
     id="path845" />
  <path
     inkscape:connector-curvature="0"
     d="m 22.411764,27.235714 c -6.97689,0 -12.7134442,-5.788235 -12.7134442,-12.765126 0,-1.447059 0.258403,-2.842437 0.7235292,-4.186134 l 7.442016,14.470588 c 0.103362,0.206722 0.206723,0.361764 0.465126,0.361764 0.258404,0 0.361765,-0.155042 0.465126,-0.361764 l 3.462605,-7.700421 c 0.05168,-0.103361 0.103362,-0.155042 0.155042,-0.155042 0.103362,0 0.103362,0.103362 0.155043,0.155042 l 3.514285,7.700421 c 0.103362,0.206722 0.206723,0.361764 0.465126,0.361764 0.258404,0 0.361765,-0.155042 0.465126,-0.361764 l 7.442017,-14.470588 c 0.465126,1.292016 0.72353,2.687395 0.72353,4.186134 -0.05168,6.976891 -5.788236,12.765126 -12.765127,12.765126 z m 0,-16.072689 c -0.103361,0 -0.103361,-0.103361 -0.155042,-0.155042 L 18.277311,2.428992 c 1.292017,-0.465126 2.687395,-0.72353 4.134453,-0.72353 1.447059,0 2.842437,0.258404 4.134454,0.72353 l -3.979411,8.578991 c -0.05168,0.05168 -0.05168,0.155042 -0.155043,0.155042 z m -4.186134,9.302521 c -0.103361,0 -0.103361,-0.103362 -0.155042,-0.155042 L 11.558824,7.8037815 C 12.695798,5.943277 14.34958,4.392857 16.261764,3.307563 l 4.59958,9.922689 c 0.103362,0.206723 0.206723,0.258403 0.361765,0.258403 h 2.377311 c 0.155042,0 0.258403,-0.05168 0.361765,-0.258403 l 4.547899,-9.922689 c 1.912185,1.085294 3.565966,2.635714 4.702941,4.4962185 L 26.752941,20.310504 c -0.05168,0.103361 -0.103361,0.155042 -0.155042,0.155042 -0.103361,0 -0.103361,-0.103362 -0.155042,-0.155042 L 23.962185,14.832353 C 23.858823,14.62563 23.755462,14.57395 23.60042,14.57395 h -2.377311 c -0.155042,0 -0.258403,0.05168 -0.361765,0.258403 l -2.480672,5.478151 c -0.05168,0.05168 -0.05168,0.155042 -0.155042,0.155042 z m 4.186134,8.47563 c 8.010505,0 14.470589,-6.460084 14.470589,-14.470588 C 36.882353,6.460084 30.422269,0 22.411764,0 14.40126,0 7.9411768,6.460084 7.9411768,14.470588 c 0,8.010504 6.4600832,14.470588 14.4705872,14.470588 z"
     id="path865"
     style="stroke-width:0.51680672" />
  <g
     transform="matrix(0.10177783,0,0,0.10177783,-28.663684,-21.927482)"
     id="g1463">
    <g
       transform="matrix(0.1,0,0,-0.1,0,511)"
       id="g1461">
      <path
         style="stroke-width:0.52426654"
         d="m 7154.0873,409.91902 c 57.4072,-9.0701 109.7814,-38.2714 152.0373,-85.6129 65.4809,-72.5059 65.4809,-70.5139 69.4653,-496.4802 4.0369,-370.5517 5.033,-388.6914 27.2095,-450.1353 61.444,-173.2178 198.3824,-289.0283 374.5884,-316.1851 289.0282,-44.3007 553.8352,204.4111 528.6704,496.4276 -5.033,64.4325 -22.124,115.8105 -121.8396,363.526605 -64.4323,159.1151 -122.8356,320.222095 -130.9093,358.493495 -10.0659,46.2927 -15.0989,132.9014 -15.0989,272.8805 0,192.3538 0.9961,203.4158 19.1357,203.4158 37.2754,0 165.144,73.5021 215.4736,124.8802 108.7329,108.7853 137.987,197.38638 137.987,421.92968 v 158.1188 h -45.2967 -45.2966 v 180.3477 c 0,104.7484 -5.033,192.3533 -11.062,211.4892 -22.1765,64.432 -110.7776,81.5756 -161.1071,32.2421 l -29.2016,-29.2014 v -197.3864 -197.3865 h -181.239 -181.239 v 197.3865 197.3864 l -29.2016,29.2014 c -41.3122,40.2638 -91.6418,40.2638 -132.9016,0 l -29.2017,-29.2014 v -197.3864 -197.3865 h -50.3296 -50.3295 v -153.0857 c 0,-84.5641 5.0329,-174.214 11.062,-198.3826 29.2017,-129.91328 133.9501,-259.82658 255.7897,-318.22968 40.2637,-19.1359 79.5312,-35.2307 87.6049,-35.2307 14.1028,0 16.095,-33.2387 20.1318,-233.6133 6.0291,-287.9795 11.062,-307.115 162.1032,-679.7113 121.8396,-299.0941 128.9172,-334.3248 83.5682,-430.9998 -83.7779,-179.2467 -323.4201,-210.4405 -449.2965,-58.4031 -56.4111,69.4652 -60.4479,99.7153 -60.4479,495.4318 0,205.407805 -5.033,377.6294 -11.0621,402.7938 -27.2094,120.8436 -129.9132,251.7531 -239.6946,307.1155 -48.6157,22.78732 -101.5041,50.04806 -128.9091,50.17432 -113.0441,0.52084 -132.871,-74.93498 -41.163,-199.22312 z"
         id="path2090"
         inkscape:connector-curvature="0"
         sodipodi:nodetypes="ccccccccsscscccsccccccccccccccccsccsccccsccsc" />
    </g>
  </g>
</svg>
